<?xml version="1.0" encoding="utf-8"?>
<!-- Generator: Adobe Illustrator 18.0.0, SVG Export Plug-In . SVG Version: 6.00 Build 0)  -->
<!DOCTYPE svg PUBLIC "-//W3C//DTD SVG 1.1//EN" "http://www.w3.org/Graphics/SVG/1.1/DTD/svg11.dtd">
<svg version="1.1" id="Layer_1" xmlns="http://www.w3.org/2000/svg" xmlns:xlink="http://www.w3.org/1999/xlink" x="0px" y="0px"
	 viewBox="0 0 280 50" enable-background="new 0 0 280 50" xml:space="preserve">
<g>
	<path d="M26.8,34.1c-0.2,0.8-0.5,1.6-1.1,2.3c-0.6,0.7-1.4,1.3-2.5,1.8c-1.1,0.5-2.5,0.7-4.3,0.7c-0.8,0-1.6-0.1-2.4-0.3
		c-0.8-0.2-1.5-0.5-2.2-0.9c-0.7-0.4-1.2-0.9-1.6-1.6c-0.4-0.6-0.7-1.4-0.7-2.3h4.3c0.2,0.8,0.6,1.4,1.2,1.7c0.6,0.3,1.3,0.5,2,0.5
		c1.2,0,2.1-0.4,2.7-1.1c0.6-0.7,0.8-1.7,0.8-2.8V30h-0.1c-0.5,0.8-1.1,1.4-2,1.8c-0.9,0.4-1.8,0.6-2.7,0.6c-1.2,0-2.2-0.2-3.1-0.6
		c-0.9-0.4-1.6-1-2.1-1.7c-0.5-0.7-1-1.6-1.2-2.5c-0.3-1-0.4-2-0.4-3.1c0-1,0.1-2,0.4-2.9c0.3-0.9,0.7-1.8,1.3-2.5
		c0.6-0.7,1.3-1.3,2.1-1.7s1.8-0.6,2.9-0.6c1,0,1.9,0.2,2.7,0.6c0.8,0.4,1.4,1,2,2h0.1v-2.1H27v14.8C27,32.5,26.9,33.3,26.8,34.1z
		 M20.8,28.8c0.5-0.2,0.9-0.6,1.2-1c0.3-0.4,0.5-0.9,0.7-1.4c0.2-0.5,0.2-1.1,0.2-1.6c0-0.7-0.1-1.3-0.2-1.8s-0.3-1.1-0.6-1.5
		c-0.3-0.4-0.7-0.8-1.1-1.1c-0.5-0.3-1.1-0.4-1.8-0.4c-0.6,0-1.1,0.1-1.6,0.4s-0.8,0.6-1.1,1c-0.3,0.4-0.5,0.9-0.6,1.4
		c-0.1,0.5-0.2,1.1-0.2,1.7c0,0.6,0.1,1.1,0.2,1.7c0.1,0.6,0.3,1.1,0.6,1.5c0.3,0.4,0.6,0.8,1.1,1.1c0.4,0.3,1,0.4,1.7,0.4
		C19.8,29.2,20.4,29.1,20.8,28.8z"/>
	<path d="M29.9,19.5c0.4-0.7,1-1.2,1.7-1.6c0.7-0.4,1.5-0.7,2.3-0.9c0.9-0.2,1.7-0.3,2.6-0.3c0.8,0,1.6,0.1,2.4,0.2
		c0.8,0.1,1.6,0.3,2.2,0.7c0.7,0.3,1.2,0.8,1.6,1.4c0.4,0.6,0.6,1.3,0.6,2.3v8.2c0,0.7,0,1.4,0.1,2c0.1,0.7,0.2,1.1,0.4,1.5h-4.4
		c-0.1-0.2-0.1-0.5-0.2-0.7c-0.1-0.3-0.1-0.5-0.1-0.8c-0.7,0.7-1.5,1.2-2.4,1.5c-0.9,0.3-1.9,0.4-2.9,0.4c-0.8,0-1.5-0.1-2.1-0.3
		c-0.7-0.2-1.2-0.5-1.7-0.9c-0.5-0.4-0.9-0.9-1.1-1.5c-0.3-0.6-0.4-1.3-0.4-2.1c0-0.9,0.2-1.6,0.5-2.2c0.3-0.6,0.7-1,1.2-1.4
		c0.5-0.3,1.1-0.6,1.7-0.8c0.6-0.2,1.3-0.3,1.9-0.4c0.7-0.1,1.3-0.2,1.9-0.2c0.6-0.1,1.2-0.2,1.7-0.3s0.9-0.3,1.2-0.5
		c0.3-0.2,0.4-0.6,0.4-1c0-0.5-0.1-0.8-0.2-1.1c-0.2-0.3-0.4-0.5-0.6-0.6c-0.3-0.2-0.5-0.3-0.9-0.3c-0.3-0.1-0.7-0.1-1.1-0.1
		c-0.9,0-1.5,0.2-2,0.5s-0.8,1-0.9,1.8h-4.3C29.2,21,29.4,20.1,29.9,19.5z M38.4,25.6c-0.3,0.1-0.6,0.2-0.9,0.2
		c-0.3,0.1-0.6,0.1-1,0.2c-0.3,0-0.7,0.1-1,0.2c-0.3,0.1-0.6,0.1-1,0.2c-0.3,0.1-0.6,0.2-0.8,0.4c-0.2,0.2-0.4,0.4-0.6,0.7
		C33,27.7,33,28,33,28.4c0,0.4,0.1,0.7,0.2,1c0.1,0.3,0.3,0.5,0.6,0.6c0.2,0.2,0.5,0.3,0.9,0.3c0.3,0.1,0.7,0.1,1,0.1
		c0.9,0,1.5-0.1,2-0.4c0.5-0.3,0.8-0.6,1-1c0.2-0.4,0.4-0.8,0.4-1.2c0.1-0.4,0.1-0.7,0.1-1v-1.6C38.9,25.4,38.7,25.5,38.4,25.6z"/>
	<path d="M54.3,17.1V20h-3.2v7.8c0,0.7,0.1,1.2,0.4,1.5s0.7,0.4,1.5,0.4c0.2,0,0.5,0,0.7,0c0.2,0,0.4-0.1,0.6-0.1v3.4
		C53.9,33,53.5,33,53,33c-0.4,0-0.9,0-1.3,0c-0.7,0-1.3,0-1.9-0.1c-0.6-0.1-1.1-0.3-1.6-0.5c-0.5-0.3-0.8-0.6-1.1-1.1
		c-0.3-0.5-0.4-1.1-0.4-1.9V20h-2.6v-2.9h2.6v-4.7h4.3v4.7H54.3z"/>
	<path d="M59.7,29.1c0.7,0.6,1.6,0.9,2.8,0.9c0.9,0,1.6-0.2,2.3-0.7c0.6-0.4,1-0.9,1.2-1.4h3.8c-0.6,1.9-1.5,3.2-2.8,4.1
		c-1.3,0.8-2.8,1.2-4.6,1.2c-1.2,0-2.4-0.2-3.4-0.6c-1-0.4-1.8-1-2.5-1.7s-1.2-1.6-1.6-2.6c-0.4-1-0.6-2.1-0.6-3.4
		c0-1.2,0.2-2.3,0.6-3.3c0.4-1,0.9-1.9,1.6-2.6c0.7-0.7,1.6-1.3,2.5-1.8c1-0.4,2.1-0.6,3.3-0.6c1.3,0,2.5,0.3,3.5,0.8
		c1,0.5,1.8,1.2,2.5,2.1c0.6,0.9,1.1,1.9,1.4,3c0.3,1.1,0.4,2.3,0.3,3.5H58.7C58.7,27.5,59.1,28.5,59.7,29.1z M64.6,20.8
		c-0.5-0.6-1.3-0.9-2.4-0.9c-0.7,0-1.3,0.1-1.7,0.4s-0.8,0.5-1.1,0.9c-0.3,0.3-0.5,0.7-0.6,1.1c-0.1,0.4-0.2,0.7-0.2,1h7
		C65.5,22.2,65.2,21.4,64.6,20.8z"/>
	<path d="M75,29c0.2,0.3,0.4,0.6,0.7,0.8c0.3,0.2,0.7,0.4,1.1,0.5c0.4,0.1,0.8,0.2,1.2,0.2c0.3,0,0.6,0,1-0.1
		c0.3-0.1,0.6-0.2,0.9-0.3c0.3-0.2,0.5-0.4,0.7-0.6s0.3-0.6,0.3-1c0-0.7-0.4-1.1-1.3-1.5c-0.9-0.3-2.1-0.7-3.6-1
		c-0.6-0.1-1.2-0.3-1.8-0.5S73,25,72.6,24.7c-0.5-0.3-0.8-0.7-1.1-1.2c-0.3-0.5-0.4-1.1-0.4-1.8c0-1,0.2-1.9,0.6-2.5
		c0.4-0.7,0.9-1.2,1.6-1.5s1.4-0.6,2.2-0.8c0.8-0.2,1.6-0.2,2.5-0.2c0.9,0,1.7,0.1,2.5,0.2c0.8,0.2,1.5,0.4,2.2,0.8
		c0.6,0.4,1.2,0.9,1.6,1.5c0.4,0.6,0.7,1.4,0.7,2.4h-4.1c-0.1-0.8-0.4-1.4-0.9-1.7c-0.6-0.3-1.2-0.4-2-0.4c-0.2,0-0.5,0-0.8,0
		c-0.3,0-0.5,0.1-0.8,0.2c-0.2,0.1-0.4,0.2-0.6,0.4c-0.2,0.2-0.2,0.5-0.2,0.8c0,0.4,0.1,0.7,0.4,0.9s0.7,0.4,1.1,0.6
		c0.5,0.2,1,0.3,1.6,0.4c0.6,0.1,1.2,0.3,1.8,0.4c0.6,0.1,1.2,0.3,1.8,0.5s1.1,0.5,1.6,0.8c0.5,0.3,0.8,0.8,1.1,1.3
		c0.3,0.5,0.4,1.1,0.4,1.8c0,1-0.2,1.9-0.6,2.6c-0.4,0.7-1,1.3-1.6,1.7s-1.4,0.7-2.3,0.9c-0.9,0.2-1.7,0.3-2.6,0.3
		c-0.9,0-1.8-0.1-2.7-0.3c-0.9-0.2-1.7-0.5-2.3-0.9s-1.2-1-1.7-1.7c-0.4-0.7-0.7-1.6-0.7-2.6h4.1C74.8,28.3,74.9,28.7,75,29z"/>
	<path d="M90.7,17.1v2.2h0.1c0.5-0.9,1.3-1.6,2.1-2c0.9-0.4,1.8-0.6,2.7-0.6c1.2,0,2.1,0.2,2.9,0.5s1.3,0.8,1.8,1.3
		c0.4,0.6,0.7,1.2,0.9,2c0.2,0.8,0.3,1.7,0.3,2.7v9.7H97V24c0-1.3-0.2-2.3-0.6-2.9c-0.4-0.6-1.1-1-2.2-1c-1.2,0-2,0.4-2.6,1.1
		c-0.5,0.7-0.8,1.9-0.8,3.5v8.3h-4.3V17.1H90.7z"/>
	<path d="M103.5,21.6c0.4-1,0.9-1.9,1.6-2.6c0.7-0.7,1.6-1.3,2.6-1.7c1-0.4,2.1-0.6,3.4-0.6c1.2,0,2.4,0.2,3.4,0.6
		c1,0.4,1.9,1,2.6,1.7c0.7,0.7,1.3,1.6,1.6,2.6c0.4,1,0.6,2.2,0.6,3.4c0,1.3-0.2,2.4-0.6,3.4c-0.4,1-0.9,1.9-1.6,2.6
		c-0.7,0.7-1.6,1.3-2.6,1.7c-1,0.4-2.1,0.6-3.4,0.6c-1.2,0-2.4-0.2-3.4-0.6s-1.9-0.9-2.6-1.7c-0.7-0.7-1.3-1.6-1.6-2.6
		c-0.4-1-0.6-2.2-0.6-3.4C103,23.8,103.1,22.6,103.5,21.6z M107.5,26.9c0.1,0.6,0.3,1.1,0.6,1.6s0.7,0.9,1.2,1.1
		c0.5,0.3,1.1,0.4,1.8,0.4s1.3-0.1,1.8-0.4c0.5-0.3,0.9-0.7,1.2-1.1s0.5-1,0.6-1.6c0.1-0.6,0.2-1.2,0.2-1.8c0-0.6-0.1-1.3-0.2-1.9
		s-0.3-1.1-0.6-1.6c-0.3-0.5-0.7-0.8-1.2-1.1c-0.5-0.3-1.1-0.4-1.8-0.4s-1.3,0.1-1.8,0.4c-0.5,0.3-0.9,0.7-1.2,1.1
		c-0.3,0.5-0.5,1-0.6,1.6s-0.2,1.2-0.2,1.9C107.3,25.7,107.3,26.3,107.5,26.9z"/>
	<path d="M129.5,17.1V20h-3.2v7.8c0,0.7,0.1,1.2,0.4,1.5s0.7,0.4,1.5,0.4c0.2,0,0.5,0,0.7,0c0.2,0,0.4-0.1,0.6-0.1v3.4
		c-0.4,0.1-0.8,0.1-1.2,0.1c-0.4,0-0.9,0-1.3,0c-0.7,0-1.3,0-1.9-0.1c-0.6-0.1-1.1-0.3-1.6-0.5c-0.5-0.3-0.8-0.6-1.1-1.1
		c-0.3-0.5-0.4-1.1-0.4-1.9V20h-2.6v-2.9h2.6v-4.7h4.3v4.7H129.5z"/>
	<path d="M135,29.1c0.7,0.6,1.6,0.9,2.8,0.9c0.9,0,1.6-0.2,2.3-0.7c0.6-0.4,1-0.9,1.2-1.4h3.8c-0.6,1.9-1.5,3.2-2.8,4.1
		c-1.3,0.8-2.8,1.2-4.6,1.2c-1.2,0-2.4-0.2-3.4-0.6c-1-0.4-1.8-1-2.5-1.7s-1.2-1.6-1.6-2.6c-0.4-1-0.6-2.1-0.6-3.4
		c0-1.2,0.2-2.3,0.6-3.3c0.4-1,0.9-1.9,1.6-2.6c0.7-0.7,1.6-1.3,2.5-1.8c1-0.4,2.1-0.6,3.3-0.6c1.3,0,2.5,0.3,3.5,0.8
		c1,0.5,1.8,1.2,2.5,2.1c0.6,0.9,1.1,1.9,1.4,3c0.3,1.1,0.4,2.3,0.3,3.5H134C134,27.5,134.4,28.5,135,29.1z M139.9,20.8
		c-0.5-0.6-1.3-0.9-2.4-0.9c-0.7,0-1.3,0.1-1.7,0.4s-0.8,0.5-1.1,0.9c-0.3,0.3-0.5,0.7-0.6,1.1c-0.1,0.4-0.2,0.7-0.2,1h7
		C140.8,22.2,140.4,21.4,139.9,20.8z"/>
	<path d="M150.3,29c0.2,0.3,0.4,0.6,0.7,0.8c0.3,0.2,0.7,0.4,1.1,0.5c0.4,0.1,0.8,0.2,1.2,0.2c0.3,0,0.6,0,1-0.1
		c0.3-0.1,0.6-0.2,0.9-0.3c0.3-0.2,0.5-0.4,0.7-0.6s0.3-0.6,0.3-1c0-0.7-0.4-1.1-1.3-1.5c-0.9-0.3-2.1-0.7-3.6-1
		c-0.6-0.1-1.2-0.3-1.8-0.5s-1.1-0.4-1.6-0.8c-0.5-0.3-0.8-0.7-1.1-1.2c-0.3-0.5-0.4-1.1-0.4-1.8c0-1,0.2-1.9,0.6-2.5
		c0.4-0.7,0.9-1.2,1.6-1.5s1.4-0.6,2.2-0.8c0.8-0.2,1.6-0.2,2.5-0.2c0.9,0,1.7,0.1,2.5,0.2c0.8,0.2,1.5,0.4,2.2,0.8
		c0.6,0.4,1.2,0.9,1.6,1.5c0.4,0.6,0.7,1.4,0.7,2.4H156c-0.1-0.8-0.4-1.4-0.9-1.7c-0.6-0.3-1.2-0.4-2-0.4c-0.2,0-0.5,0-0.8,0
		c-0.3,0-0.5,0.1-0.8,0.2c-0.2,0.1-0.4,0.2-0.6,0.4c-0.2,0.2-0.2,0.5-0.2,0.8c0,0.4,0.1,0.7,0.4,0.9s0.7,0.4,1.1,0.6
		c0.5,0.2,1,0.3,1.6,0.4c0.6,0.1,1.2,0.3,1.8,0.4c0.6,0.1,1.2,0.3,1.8,0.5s1.1,0.5,1.6,0.8c0.5,0.3,0.8,0.8,1.1,1.3
		c0.3,0.5,0.4,1.1,0.4,1.8c0,1-0.2,1.9-0.6,2.6c-0.4,0.7-1,1.3-1.6,1.7s-1.4,0.7-2.3,0.9c-0.9,0.2-1.7,0.3-2.6,0.3
		c-0.9,0-1.8-0.1-2.7-0.3c-0.9-0.2-1.7-0.5-2.3-0.9s-1.2-1-1.7-1.7c-0.4-0.7-0.7-1.6-0.7-2.6h4.1C150,28.3,150.1,28.7,150.3,29z"/>
	<path d="M163.6,19.6c0.3-0.7,0.8-1.2,1.3-1.6c0.6-0.4,1.2-0.7,2-0.9c0.8-0.2,1.6-0.3,2.5-0.3c0.7,0,1.4,0.1,2.1,0.2
		c0.7,0.1,1.3,0.4,1.9,0.7s1,0.9,1.3,1.5c0.3,0.7,0.5,1.5,0.5,2.6v8.4c0,0.8,0.4,1.2,1.1,1.2c0.2,0,0.4,0,0.6-0.1v1.6
		c-0.2,0-0.4,0.1-0.6,0.1c-0.2,0-0.4,0-0.7,0c-0.5,0-0.9-0.1-1.2-0.2c-0.3-0.1-0.5-0.3-0.7-0.6c-0.2-0.2-0.3-0.5-0.3-0.9
		c-0.1-0.3-0.1-0.7-0.1-1.1h-0.1c-0.3,0.5-0.7,1-1.1,1.4c-0.4,0.4-0.8,0.7-1.2,1c-0.4,0.3-0.9,0.5-1.5,0.6c-0.6,0.1-1.2,0.2-2,0.2
		c-0.7,0-1.4-0.1-2.1-0.3c-0.6-0.2-1.2-0.4-1.7-0.8c-0.5-0.4-0.9-0.9-1.1-1.4c-0.3-0.6-0.4-1.3-0.4-2.1c0-1.1,0.2-2,0.7-2.6
		s1.1-1.1,1.9-1.4c0.8-0.3,1.7-0.6,2.7-0.7s2-0.3,3.1-0.4c0.4,0,0.8-0.1,1.1-0.2s0.6-0.2,0.8-0.3c0.2-0.2,0.4-0.4,0.5-0.6
		c0.1-0.3,0.2-0.6,0.2-1c0-0.7-0.1-1.2-0.3-1.6c-0.2-0.4-0.5-0.7-0.9-1s-0.8-0.4-1.3-0.5c-0.5-0.1-1-0.1-1.6-0.1
		c-1.2,0-2.2,0.3-3,0.9c-0.8,0.6-1.2,1.5-1.2,2.8h-1.9C163.1,21.1,163.3,20.3,163.6,19.6z M173.3,24.3c-0.1,0.2-0.4,0.4-0.7,0.5
		c-0.3,0.1-0.7,0.2-0.9,0.2c-0.8,0.1-1.7,0.3-2.5,0.4c-0.9,0.1-1.7,0.3-2.4,0.5c-0.7,0.2-1.3,0.5-1.8,1c-0.5,0.4-0.7,1-0.7,1.8
		c0,0.5,0.1,0.9,0.3,1.3c0.2,0.4,0.5,0.7,0.8,1c0.3,0.3,0.7,0.5,1.1,0.6c0.4,0.1,0.9,0.2,1.3,0.2c0.7,0,1.4-0.1,2.1-0.3
		c0.7-0.2,1.3-0.5,1.8-1s0.9-0.9,1.2-1.6c0.3-0.6,0.4-1.3,0.4-2.1L173.3,24.3L173.3,24.3z"/>
	<path d="M180.4,17.2v2.7h0.1c0.4-1,1-1.7,2-2.3c0.9-0.6,2-0.9,3.1-0.9c1.1,0,2,0.1,2.8,0.4c0.7,0.3,1.3,0.7,1.8,1.2
		c0.4,0.5,0.8,1.2,0.9,1.9c0.2,0.8,0.3,1.6,0.3,2.5v10.1h-1.9v-9.8c0-0.7-0.1-1.3-0.2-1.9c-0.1-0.6-0.3-1.1-0.6-1.5s-0.7-0.8-1.2-1
		s-1.2-0.4-1.9-0.4c-0.8,0-1.5,0.1-2.1,0.4c-0.6,0.3-1.1,0.7-1.5,1.1c-0.4,0.5-0.7,1-1,1.7c-0.2,0.7-0.4,1.4-0.4,2.2v9.2h-1.9V17.2
		H180.4z"/>
	<path d="M194,19.6c0.3-0.7,0.8-1.2,1.3-1.6c0.6-0.4,1.2-0.7,2-0.9c0.8-0.2,1.6-0.3,2.5-0.3c0.7,0,1.4,0.1,2.1,0.2
		c0.7,0.1,1.3,0.4,1.9,0.7s1,0.9,1.3,1.5c0.3,0.7,0.5,1.5,0.5,2.6v8.4c0,0.8,0.4,1.2,1.1,1.2c0.2,0,0.4,0,0.6-0.1v1.6
		c-0.2,0-0.4,0.1-0.6,0.1c-0.2,0-0.4,0-0.7,0c-0.5,0-0.9-0.1-1.2-0.2c-0.3-0.1-0.5-0.3-0.7-0.6c-0.2-0.2-0.3-0.5-0.3-0.9
		c-0.1-0.3-0.1-0.7-0.1-1.1h-0.1c-0.3,0.5-0.7,1-1.1,1.4c-0.4,0.4-0.8,0.7-1.2,1c-0.4,0.3-0.9,0.5-1.5,0.6c-0.6,0.1-1.2,0.2-2,0.2
		c-0.7,0-1.4-0.1-2.1-0.3c-0.6-0.2-1.2-0.4-1.7-0.8c-0.5-0.4-0.9-0.9-1.1-1.4c-0.3-0.6-0.4-1.3-0.4-2.1c0-1.1,0.2-2,0.7-2.6
		s1.1-1.1,1.9-1.4c0.8-0.3,1.7-0.6,2.7-0.7s2-0.3,3.1-0.4c0.4,0,0.8-0.1,1.1-0.2s0.6-0.2,0.8-0.3c0.2-0.2,0.4-0.4,0.5-0.6
		c0.1-0.3,0.2-0.6,0.2-1c0-0.7-0.1-1.2-0.3-1.6c-0.2-0.4-0.5-0.7-0.9-1s-0.8-0.4-1.3-0.5c-0.5-0.1-1-0.1-1.6-0.1
		c-1.2,0-2.2,0.3-3,0.9c-0.8,0.6-1.2,1.5-1.2,2.8h-1.9C193.5,21.1,193.7,20.3,194,19.6z M203.7,24.3c-0.1,0.2-0.4,0.4-0.7,0.5
		c-0.3,0.1-0.7,0.2-0.9,0.2c-0.8,0.1-1.7,0.3-2.5,0.4c-0.9,0.1-1.7,0.3-2.4,0.5c-0.7,0.2-1.3,0.5-1.8,1c-0.5,0.4-0.7,1-0.7,1.8
		c0,0.5,0.1,0.9,0.3,1.3c0.2,0.4,0.5,0.7,0.8,1c0.3,0.3,0.7,0.5,1.1,0.6c0.4,0.1,0.9,0.2,1.3,0.2c0.7,0,1.4-0.1,2.1-0.3
		c0.7-0.2,1.3-0.5,1.8-1s0.9-0.9,1.2-1.6c0.3-0.6,0.4-1.3,0.4-2.1L203.7,24.3L203.7,24.3z"/>
	<path d="M210.8,11.1v21.8h-1.9V11.1H210.8z"/>
	<path d="M214.2,17.2l5.2,13.4l4.9-13.4h1.9l-6.8,18.1c-0.3,0.7-0.5,1.2-0.8,1.7c-0.2,0.4-0.5,0.8-0.8,1s-0.6,0.4-1,0.5
		c-0.4,0.1-0.9,0.2-1.5,0.2c-0.4,0-0.7,0-0.9,0c-0.2,0-0.4,0-0.6-0.1v-1.6c0.2,0,0.4,0.1,0.7,0.1c0.2,0,0.4,0,0.7,0
		c0.4,0,0.8-0.1,1.1-0.2c0.3-0.1,0.5-0.3,0.7-0.5c0.2-0.2,0.4-0.5,0.5-0.8c0.1-0.3,0.3-0.6,0.5-1l0.7-1.8l-6.3-15.7H214.2z"/>
	<path d="M234.9,17.2v1.6h-3.2v10.6c0,0.6,0.1,1.1,0.3,1.5c0.2,0.4,0.6,0.6,1.3,0.6c0.5,0,1.1,0,1.6-0.1V33c-0.3,0-0.6,0-0.9,0
		c-0.3,0-0.6,0-0.9,0c-1.3,0-2.2-0.2-2.7-0.7c-0.5-0.5-0.8-1.4-0.7-2.8V18.8H227v-1.6h2.7v-4.7h1.9v4.7H234.9z"/>
	<path d="M238.4,11.1v3.1h-1.9v-3.1H238.4z M238.4,17.2v15.7h-1.9V17.2H238.4z"/>
	<path d="M250.5,19.3c-0.7-0.7-1.7-1-3-1c-0.9,0-1.7,0.2-2.4,0.6c-0.7,0.4-1.3,0.9-1.7,1.5c-0.5,0.6-0.8,1.3-1,2.2
		c-0.2,0.8-0.4,1.6-0.4,2.5c0,0.8,0.1,1.7,0.4,2.5c0.2,0.8,0.6,1.5,1,2.2c0.5,0.6,1,1.1,1.7,1.5c0.7,0.4,1.5,0.6,2.4,0.6
		c0.6,0,1.1-0.1,1.7-0.3c0.5-0.2,1-0.5,1.4-0.9c0.4-0.4,0.7-0.9,1-1.4c0.3-0.5,0.4-1.1,0.5-1.8h1.9c-0.3,1.9-1,3.4-2.1,4.5
		c-1.1,1.1-2.6,1.6-4.4,1.6c-1.2,0-2.3-0.2-3.2-0.7c-0.9-0.4-1.7-1-2.3-1.8c-0.6-0.8-1.1-1.6-1.4-2.6c-0.3-1-0.5-2.1-0.5-3.2
		c0-1.1,0.2-2.2,0.5-3.2c0.3-1,0.8-1.9,1.4-2.6c0.6-0.8,1.4-1.4,2.3-1.8c0.9-0.4,2-0.7,3.2-0.7c1.7,0,3.1,0.4,4.3,1.3
		c1.2,0.9,1.9,2.2,2.1,4.1H252C251.7,20.9,251.2,20,250.5,19.3z"/>
	<path d="M265.8,20.2c-0.2-0.4-0.5-0.8-0.9-1.1c-0.4-0.3-0.8-0.5-1.3-0.6s-1-0.2-1.6-0.2c-0.4,0-0.9,0-1.3,0.1
		c-0.4,0.1-0.8,0.2-1.2,0.5c-0.4,0.2-0.7,0.5-0.9,0.8c-0.2,0.3-0.3,0.8-0.3,1.3c0,0.4,0.1,0.8,0.3,1.1c0.2,0.3,0.5,0.5,0.8,0.7
		c0.3,0.2,0.7,0.4,1.1,0.5c0.4,0.1,0.7,0.2,1.1,0.3l2.6,0.6c0.5,0.1,1.1,0.2,1.6,0.4c0.5,0.2,1,0.5,1.4,0.8c0.4,0.3,0.8,0.8,1,1.3
		c0.3,0.5,0.4,1.1,0.4,1.8c0,0.9-0.2,1.6-0.6,2.2c-0.4,0.6-0.9,1.1-1.5,1.5s-1.3,0.6-2,0.8c-0.8,0.2-1.5,0.2-2.2,0.2
		c-1.9,0-3.4-0.4-4.5-1.3s-1.8-2.3-2-4.2h1.9c0.1,1.3,0.6,2.3,1.4,2.9c0.9,0.7,1.9,1,3.2,1c0.5,0,1-0.1,1.4-0.2
		c0.5-0.1,1-0.3,1.4-0.5s0.8-0.6,1.1-0.9c0.3-0.4,0.4-0.8,0.4-1.4c0-0.5-0.1-0.9-0.3-1.2c-0.2-0.3-0.5-0.6-0.8-0.8
		c-0.3-0.2-0.7-0.4-1.1-0.5c-0.4-0.1-0.8-0.3-1.3-0.4l-2.5-0.5c-0.6-0.2-1.2-0.4-1.7-0.6c-0.5-0.2-1-0.5-1.4-0.8
		c-0.4-0.3-0.7-0.7-0.9-1.2c-0.2-0.5-0.3-1-0.3-1.7c0-0.8,0.2-1.5,0.5-2c0.4-0.6,0.8-1,1.4-1.4c0.6-0.3,1.2-0.6,1.9-0.8
		c0.7-0.2,1.4-0.2,2.1-0.2c0.8,0,1.5,0.1,2.2,0.3c0.7,0.2,1.3,0.5,1.8,0.9c0.5,0.4,0.9,1,1.2,1.6c0.3,0.6,0.5,1.4,0.5,2.2h-1.9
		C266.1,21.2,266,20.7,265.8,20.2z"/>
</g>
</svg>
